<svg width="30" height="30" viewBox="0 0 30 30" fill="none" xmlns="http://www.w3.org/2000/svg">
    <circle cx="15" cy="15" r="15" fill="#ECF0F9"/>
    <path fill-rule="evenodd" clip-rule="evenodd" d="M14.9976 9C12.9726 9 11.331 10.6416 11.331 12.6667C11.331 13.9263 11.9661 15.0376 12.9337 15.6977C10.6906 16.5194 9.07492 18.642 9.00023 21.1518C8.99201 21.4278 9.20911 21.6582 9.48513 21.6664C9.76115 21.6747 9.99157 21.4576 9.99978 21.1815C10.0799 18.4905 12.2869 16.3333 14.9975 16.3333C17.7082 16.3333 19.9152 18.4905 19.9953 21.1815C20.0035 21.4576 20.2339 21.6747 20.5099 21.6664C20.7859 21.6582 21.003 21.4278 20.9948 21.1518C20.9201 18.642 19.3044 16.5194 17.0615 15.6977C18.029 15.0376 18.6642 13.9263 18.6642 12.6667C18.6642 10.6416 17.0226 9 14.9976 9ZM12.331 12.6667C12.331 11.1939 13.5249 10 14.9976 10C16.4703 10 17.6642 11.1939 17.6642 12.6667C17.6642 14.1394 16.4703 15.3333 14.9976 15.3333C13.5249 15.3333 12.331 14.1394 12.331 12.6667Z" fill="#00245A"/>
    <path d="M23.2 18.538C23.0413 18.538 22.92 18.496 22.836 18.412C22.752 18.3187 22.71 18.1927 22.71 18.034V15.458H20.176C20.0173 15.458 19.896 15.416 19.812 15.332C19.728 15.248 19.686 15.1313 19.686 14.982C19.686 14.8327 19.728 14.716 19.812 14.632C19.896 14.548 20.0173 14.506 20.176 14.506H22.71V12.014C22.71 11.846 22.752 11.72 22.836 11.636C22.92 11.552 23.046 11.51 23.214 11.51C23.3727 11.51 23.4893 11.552 23.564 11.636C23.648 11.72 23.69 11.846 23.69 12.014V14.506H26.224C26.3827 14.506 26.504 14.548 26.588 14.632C26.672 14.716 26.714 14.8327 26.714 14.982C26.714 15.1313 26.672 15.248 26.588 15.332C26.504 15.416 26.3827 15.458 26.224 15.458H23.69V18.034C23.69 18.1927 23.648 18.3187 23.564 18.412C23.4893 18.496 23.368 18.538 23.2 18.538Z" fill="#00245A"/>
</svg>
