<svg width="30" height="30" viewBox="0 0 30 30" fill="none" xmlns="http://www.w3.org/2000/svg">
    <circle cx="15" cy="15" r="15" fill="#ECF0F9"/>
    <path d="M15 20C14.7742 20 14.6016 19.9402 14.4821 19.8207C14.3625 19.6879 14.3028 19.5086 14.3028 19.2829V15.6175H10.6972C10.4714 15.6175 10.2988 15.5578 10.1793 15.4382C10.0598 15.3187 10 15.1527 10 14.9402C10 14.7278 10.0598 14.5618 10.1793 14.4422C10.2988 14.3227 10.4714 14.2629 10.6972 14.2629H14.3028V10.7171C14.3028 10.4781 14.3625 10.2988 14.4821 10.1793C14.6016 10.0598 14.7809 10 15.0199 10C15.2457 10 15.4117 10.0598 15.5179 10.1793C15.6375 10.2988 15.6972 10.4781 15.6972 10.7171V14.2629H19.3028C19.5286 14.2629 19.7012 14.3227 19.8207 14.4422C19.9402 14.5618 20 14.7278 20 14.9402C20 15.1527 19.9402 15.3187 19.8207 15.4382C19.7012 15.5578 19.5286 15.6175 19.3028 15.6175H15.6972V19.2829C15.6972 19.5086 15.6375 19.6879 15.5179 19.8207C15.4117 19.9402 15.239 20 15 20Z" fill="#00245A"/>
</svg>
