<svg width="32" height="34" viewBox="0 0 32 34" fill="none" xmlns="http://www.w3.org/2000/svg">
<path d="M28.6315 9.10598L15.2105 16.5621M15.2105 16.5621L1.78942 9.10598M15.2105 16.5621L15.2105 31.5622M18.3684 30.5973L16.4374 31.67C15.9896 31.9188 15.7657 32.0432 15.5286 32.092C15.3188 32.1351 15.1023 32.1351 14.8924 32.092C14.6553 32.0432 14.4314 31.9188 13.9836 31.67L2.29943 25.1788C1.82651 24.9161 1.59003 24.7847 1.41784 24.5979C1.26551 24.4326 1.15023 24.2366 1.07971 24.0232C1 23.7819 1 23.5114 1 22.9704V10.1539C1 9.61291 1 9.34241 1.07971 9.10115C1.15023 8.88771 1.26551 8.69179 1.41784 8.52649C1.59003 8.33964 1.8265 8.20827 2.29943 7.94553L13.9836 1.4543C14.4314 1.20553 14.6553 1.08114 14.8924 1.03237C15.1023 0.98921 15.3188 0.98921 15.5286 1.03237C15.7657 1.08114 15.9896 1.20552 16.4374 1.4543L28.1216 7.94553C28.5946 8.20827 28.831 8.33964 29.0032 8.52649C29.1555 8.69179 29.2708 8.88771 29.3413 9.10114C29.4211 9.3424 29.4211 9.61291 29.4211 10.1539L29.4211 17.3516M8.10526 4.72006L22.3158 12.6148M26.2632 30.7727V21.299M21.5263 26.0359H31" stroke="#ECF0F9" stroke-width="2" stroke-linecap="round" stroke-linejoin="round"/>
</svg>
