<svg width="30" height="30" viewBox="0 0 30 30" fill="none" xmlns="http://www.w3.org/2000/svg">
    <circle cx="15" cy="15" r="15" fill="#ECF0F9"/>
    <path d="M21.4289 11.6461L15.392 15M15.392 15L9.35509 11.6461M15.392 15L15.392 21.7471M16.8125 21.3131L15.9439 21.7957C15.7425 21.9076 15.6418 21.9635 15.5351 21.9854C15.4407 22.0049 15.3433 22.0049 15.2489 21.9854C15.1423 21.9635 15.0416 21.9076 14.8402 21.7957L9.58449 18.8758C9.37177 18.7577 9.2654 18.6986 9.18795 18.6145C9.11943 18.5402 9.06758 18.452 9.03586 18.356C9 18.2475 9 18.1258 9 17.8825V12.1175C9 11.8742 9 11.7525 9.03586 11.644C9.06758 11.548 9.11943 11.4598 9.18795 11.3855C9.2654 11.3014 9.37177 11.2423 9.58449 11.1242L14.8402 8.20435C15.0416 8.09245 15.1423 8.0365 15.2489 8.01456C15.3433 7.99515 15.4407 7.99515 15.5351 8.01456C15.6418 8.0365 15.7425 8.09245 15.9439 8.20435L21.1995 11.1242C21.4123 11.2423 21.5186 11.3014 21.5961 11.3855C21.6646 11.4598 21.7165 11.548 21.7482 11.644C21.784 11.7525 21.784 11.8742 21.784 12.1175L21.784 15.3551M12.196 9.67332L18.588 13.2244M18.2329 19.2613L19.6534 20.6818L22.4943 17.8409" stroke="#00245A" stroke-linecap="round" stroke-linejoin="round"/>
</svg>
