<svg width="30" height="30" viewBox="0 0 30 30" fill="none" xmlns="http://www.w3.org/2000/svg">
    <circle cx="15" cy="15" r="15" fill="#ECF0F9"/>
    <path d="M18 9.5C18.6975 9.5 19.0462 9.5 19.3323 9.57667C20.1088 9.78472 20.7153 10.3912 20.9233 11.1677C21 11.4538 21 11.8025 21 12.5V19.4C21 20.6601 21 21.2902 20.7548 21.7715C20.539 22.1948 20.1948 22.539 19.7715 22.7548C19.2902 23 18.6601 23 17.4 23H12.6C11.3399 23 10.7098 23 10.2285 22.7548C9.80516 22.539 9.46095 22.1948 9.24524 21.7715C9 21.2902 9 20.6601 9 19.4V12.5C9 11.8025 9 11.4538 9.07667 11.1677C9.28472 10.3912 9.8912 9.78472 10.6677 9.57667C10.9538 9.5 11.3025 9.5 12 9.5M12.75 17.75L14.25 19.25L17.625 15.875M13.2 11H16.8C17.22 11 17.4301 11 17.5905 10.9183C17.7316 10.8464 17.8463 10.7316 17.9183 10.5905C18 10.4301 18 10.22 18 9.8V9.2C18 8.77996 18 8.56994 17.9183 8.40951C17.8463 8.26839 17.7316 8.15365 17.5905 8.08175C17.4301 8 17.22 8 16.8 8H13.2C12.78 8 12.5699 8 12.4095 8.08175C12.2684 8.15365 12.1537 8.26839 12.0817 8.40951C12 8.56994 12 8.77996 12 9.2V9.8C12 10.22 12 10.4301 12.0817 10.5905C12.1537 10.7316 12.2684 10.8464 12.4095 10.9183C12.5699 11 12.78 11 13.2 11Z" stroke="#00245A" stroke-linecap="round" stroke-linejoin="round"/>
</svg>
