<svg width="25" height="25" viewBox="0 0 25 25" fill="none" xmlns="http://www.w3.org/2000/svg">
    <circle cx="12.5" cy="12.5" r="12.5" fill="#ECF0F9"/>
    <path d="M12.5992 8.80246C12.7719 8.58698 12.7372 8.27231 12.5217 8.09961C12.3062 7.92691 11.9915 7.96159 11.8188 8.17707L12.5992 8.80246ZM6.311 15.8488L6.68969 16.1753C6.69359 16.1707 6.69742 16.1661 6.70115 16.1615L6.311 15.8488ZM6.14 16.2668L5.64097 16.2342L5.64054 16.2436L6.14 16.2668ZM6 19.2898L5.50054 19.2666C5.49939 19.2915 5.50009 19.3163 5.50264 19.3411L6 19.2898ZM6.787 19.9768L6.80335 20.4765C6.83669 20.4754 6.86984 20.471 6.90231 20.4633L6.787 19.9768ZM9.787 19.2658L9.90232 19.7523L9.91008 19.7504L9.787 19.2658ZM10.172 19.0218L10.5577 19.34L10.5621 19.3346L10.172 19.0218ZM16.6021 11.8026C16.7748 11.5871 16.7402 11.2724 16.5248 11.0997C16.3094 10.9269 15.9947 10.9615 15.8219 11.177L16.6021 11.8026ZM11.8219 8.17694C11.6492 8.39235 11.6838 8.70704 11.8992 8.87981C12.1146 9.05258 12.4293 9.01801 12.602 8.80259L11.8219 8.17694ZM13.8 6.50976L14.1901 6.82259C14.1966 6.8144 14.2029 6.806 14.209 6.79741L13.8 6.50976ZM15.429 6.18976L15.7489 5.80547C15.7329 5.79222 15.7162 5.77997 15.6988 5.76879L15.429 6.18976ZM17.666 8.05176L18.0199 7.69854C18.009 7.68766 17.9977 7.6773 17.9859 7.66747L17.666 8.05176ZM18.0029 8.87264L18.5029 8.87539V8.87539L18.0029 8.87264ZM17.657 9.68976L17.307 9.33267C17.2929 9.34656 17.2795 9.36128 17.2671 9.37676L17.657 9.68976ZM15.8221 11.1768C15.6492 11.3921 15.6837 11.7068 15.899 11.8797C16.1143 12.0525 16.429 12.0181 16.6019 11.8028L15.8221 11.1768ZM12.7065 8.41567C12.6656 8.14257 12.411 7.95436 12.1379 7.99529C11.8648 8.03621 11.6766 8.29077 11.7175 8.56386L12.7065 8.41567ZM16.2793 11.9852C16.5529 11.948 16.7446 11.6961 16.7074 11.4224C16.6703 11.1488 16.4183 10.9571 16.1447 10.9943L16.2793 11.9852ZM11.8188 8.17707L5.92085 15.5361L6.70115 16.1615L12.5992 8.80246L11.8188 8.17707ZM5.93231 15.5223C5.76043 15.7216 5.65819 15.9716 5.64106 16.2342L6.63894 16.2993C6.64192 16.2535 6.65974 16.21 6.68969 16.1753L5.93231 15.5223ZM5.64054 16.2436L5.50054 19.2666L6.49946 19.3129L6.63946 16.2899L5.64054 16.2436ZM5.50264 19.3411C5.57085 20.0023 6.13891 20.4982 6.80335 20.4765L6.77065 19.477C6.63105 19.4816 6.51169 19.3774 6.49736 19.2385L5.50264 19.3411ZM6.90231 20.4633L9.90231 19.7523L9.67169 18.7792L6.67169 19.4902L6.90231 20.4633ZM9.91008 19.7504C10.1641 19.6859 10.3909 19.5421 10.5577 19.3399L9.7863 18.7036C9.75479 18.7418 9.71192 18.769 9.66392 18.7811L9.91008 19.7504ZM10.5621 19.3346L16.6021 11.8026L15.8219 11.177L9.78193 18.709L10.5621 19.3346ZM12.602 8.80259L14.1901 6.82259L13.41 6.19694L11.8219 8.17694L12.602 8.80259ZM14.209 6.79741C14.4246 6.49077 14.8436 6.40847 15.1592 6.61074L15.6988 5.76879C14.9322 5.27757 13.9148 5.47744 13.391 6.22212L14.209 6.79741ZM15.1091 6.57406L17.3461 8.43606L17.9859 7.66747L15.7489 5.80547L15.1091 6.57406ZM17.3121 8.40499C17.4352 8.5283 17.5039 8.69567 17.5029 8.86989L18.5029 8.87539C18.5054 8.43437 18.3314 8.01067 18.0199 7.69854L17.3121 8.40499ZM17.5029 8.86989C17.502 9.04411 17.4314 9.21072 17.307 9.33267L18.007 10.0469C18.3219 9.73816 18.5005 9.3164 18.5029 8.87539L17.5029 8.86989ZM17.2671 9.37676L15.8221 11.1768L16.6019 11.8028L18.0469 10.0028L17.2671 9.37676ZM11.7175 8.56386C12.0466 10.7599 14.0789 12.2842 16.2793 11.9852L16.1447 10.9943C14.4863 11.2197 12.9545 10.0708 12.7065 8.41567L11.7175 8.56386Z" fill="#00245A"/>
</svg>
