<svg width="28" height="22" viewBox="0 0 28 22" fill="none" xmlns="http://www.w3.org/2000/svg">
    <path d="M13.9997 17C10.8393 17 8.28097 14.5537 8.04556 11.4537L3.67474 8.07584C3.10016 8.79667 2.57141 9.55875 2.14474 10.3921C2.04943 10.5806 1.99977 10.7889 1.99977 11.0002C1.99977 11.2115 2.04943 11.4198 2.14474 11.6083C4.40432 16.0171 8.87764 19 13.9997 19C15.121 19 16.2026 18.8333 17.2451 18.5641L15.083 16.8912C14.726 16.9602 14.3634 16.9966 13.9997 17ZM27.0755 19.4208L22.4693 15.8608C23.8685 14.6816 25.0193 13.2359 25.8547 11.6079C25.95 11.4194 25.9996 11.2111 25.9996 10.9998C25.9996 10.7885 25.95 10.5802 25.8547 10.3917C23.5951 5.98293 19.1218 3.00002 13.9997 3.00002C11.8545 3.00262 9.74414 3.54267 7.86139 4.57085L2.56057 0.473778C2.49145 0.419989 2.41241 0.380349 2.32796 0.357122C2.24351 0.333895 2.15531 0.327536 2.0684 0.338409C1.98149 0.349282 1.89758 0.377174 1.82145 0.420491C1.74533 0.463808 1.67849 0.5217 1.62474 0.590861L0.80683 1.64377C0.69833 1.78335 0.649711 1.96031 0.671668 2.13573C0.693625 2.31114 0.784358 2.47066 0.923913 2.57919L25.4388 21.5262C25.508 21.58 25.587 21.6196 25.6715 21.6429C25.7559 21.6661 25.8441 21.6725 25.931 21.6616C26.0179 21.6507 26.1018 21.6228 26.178 21.5795C26.2541 21.5362 26.3209 21.4783 26.3747 21.4091L27.193 20.3562C27.3015 20.2166 27.35 20.0396 27.328 19.8642C27.3059 19.6888 27.2151 19.5293 27.0755 19.4208ZM19.4205 13.5042L17.783 12.2383C17.9209 11.8398 17.9941 11.4217 17.9997 11C18.0078 10.3826 17.871 9.77191 17.6003 9.21698C17.3296 8.66204 16.9326 8.17832 16.441 7.80468C15.9495 7.43104 15.3771 7.17789 14.77 7.06556C14.1628 6.95324 13.5378 6.98487 12.9451 7.15792C13.1964 7.49838 13.3323 7.91021 13.333 8.33334C13.3268 8.47414 13.3053 8.61385 13.2689 8.75L10.2018 6.37959C11.2672 5.48926 12.6113 5.00104 13.9997 5.00001C14.7878 4.99958 15.5682 5.15447 16.2963 5.45584C17.0245 5.75721 17.6861 6.19915 18.2433 6.75639C18.8005 7.31363 19.2425 7.97523 19.5439 8.70338C19.8452 9.43153 20.0001 10.2119 19.9997 11C19.9997 11.9012 19.7793 12.7412 19.4205 13.5046V13.5042Z" fill="#4B84F1"/>
</svg>
