<svg width="33" height="33" viewBox="0 0 33 33" fill="none" xmlns="http://www.w3.org/2000/svg">
    <path d="M10.0714 9C5.33756 9 1.5 12.4325 1.5 16.6667L1.5 24.3333C1.5 28.5675 5.33756 32 10.0714 32L22.9286 32C27.6624 32 31.5 28.5675 31.5 24.3333L31.5 16.6667C31.5 12.4325 27.6624 9 22.9286 9" stroke="white" stroke-width="2" stroke-linecap="round" stroke-linejoin="round"/>
    <path d="M22.8834 19.317C23.2665 18.9192 23.2545 18.2861 22.8567 17.9031C22.4589 17.52 21.8258 17.5319 21.4428 17.9298L22.8834 19.317ZM16.0214 23.5598C15.6383 23.9577 15.6503 24.5907 16.0481 24.9738C16.446 25.3569 17.079 25.3449 17.4621 24.9471L16.0214 23.5598ZM16.0214 24.9471C16.4045 25.3449 17.0375 25.3568 17.4354 24.9738C17.8332 24.5907 17.8452 23.9576 17.4621 23.5598L16.0214 24.9471ZM12.0407 17.9298C11.6577 17.5319 11.0246 17.52 10.6268 17.9031C10.229 18.2861 10.217 18.9192 10.6001 19.317L12.0407 17.9298ZM15.7416 24.2535C15.7416 24.8057 16.1893 25.2535 16.7416 25.2535C17.2939 25.2535 17.7416 24.8057 17.7416 24.2535L15.7416 24.2535ZM17.7416 1.48387C17.7416 0.931586 17.2939 0.483871 16.7416 0.483871C16.1893 0.483871 15.7416 0.931586 15.7416 1.48387L17.7416 1.48387ZM21.4428 17.9298L16.0214 23.5598L17.4621 24.9471L22.8834 19.317L21.4428 17.9298ZM17.4621 23.5598L12.0407 17.9298L10.6001 19.317L16.0214 24.9471L17.4621 23.5598ZM17.7416 24.2535L17.7416 1.48387L15.7416 1.48387L15.7416 24.2535L17.7416 24.2535Z" fill="white"/>
</svg>
