<svg width="153" height="26" viewBox="0 0 153 26" fill="none" xmlns="http://www.w3.org/2000/svg">
        <g clip-path="url(#clip0_1908_4210)">
            <path d="M89.8106 8.3055C88.9762 8.3055 88.1129 8.13941 87.221 7.82107C86.4873 7.55806 85.6529 7.93184 85.3795 8.65161C85.1062 9.35756 85.4947 10.1604 86.2427 10.4235C87.293 10.8526 88.4726 11.0741 89.8106 11.0741H90.2422C91.7095 11.0741 92.9037 10.7696 93.8243 10.1466C94.7451 9.52365 95.2055 8.67928 95.2055 7.61338C95.2055 6.54749 94.7451 5.70312 93.8243 5.08016C92.9037 4.45731 91.7095 4.15269 90.2422 4.15269C88.8467 4.15269 88.1562 3.91745 88.1562 3.46058C88.1562 3.00382 88.8467 2.76846 90.2422 2.76846C91.1341 2.76846 91.9973 2.93455 92.8317 3.253C93.5654 3.51601 94.3998 3.14224 94.6731 2.42246C94.9465 1.7164 94.5581 0.913527 93.81 0.650511C92.7598 0.221411 91.5801 0 90.2422 0C88.7747 0 87.5807 0.304509 86.6599 0.927358C85.7391 1.55032 85.2788 2.39469 85.2788 3.46058C85.2788 4.52647 85.7391 5.37095 86.6599 5.9938C87.5807 6.61676 88.7747 6.92127 90.2422 6.92127C91.6377 6.92127 92.3282 7.15662 92.3282 7.61338C92.3282 8.07026 91.6377 8.3055 90.2422 8.3055H89.8106V8.3055ZM108.097 9.68984C108.097 10.4511 108.744 11.0741 109.535 11.0741C110.327 11.0741 110.974 10.4511 110.974 9.68984V1.38423C110.974 0.622849 110.327 0 109.535 0C109.133 0 108.787 0.138423 108.514 0.401438L104.5 4.26346L100.486 0.401438C100.184 0.138423 99.8389 0 99.4649 0C98.6736 0 98.0262 0.622849 98.0262 1.38423V9.68984C98.0262 10.4511 98.6736 11.0741 99.4649 11.0741C100.256 11.0741 100.904 10.4511 100.904 9.68984V4.73416L103.479 7.21194C103.752 7.47496 104.097 7.61338 104.5 7.61338C104.889 7.61338 105.22 7.47496 105.522 7.21194L108.097 4.73416V9.68984ZM113.781 9.01156C113.665 9.21914 113.608 9.45449 113.608 9.68984C113.608 10.4511 114.255 11.0741 115.047 11.0741C115.608 11.0741 116.025 10.8249 116.327 10.3127L117.118 8.99773H122.93L123.707 10.3127C124.009 10.8249 124.441 11.0741 125.002 11.0741C125.793 11.0741 126.441 10.4511 126.441 9.68984C126.441 9.42683 126.383 9.20531 126.268 9.01156L121.276 0.678285C120.988 0.221411 120.571 0 120.024 0C119.477 0 119.06 0.221411 118.773 0.678285L113.781 9.01156V9.01156ZM121.261 6.22915H118.773L120.024 4.15269L121.261 6.22915V6.22915ZM129.074 9.68984C129.074 10.4511 129.722 11.0741 130.513 11.0741C131.304 11.0741 131.952 10.4511 131.952 9.68984V7.61338H133.505L136.685 10.6726C136.958 10.9356 137.303 11.0741 137.706 11.0741C138.498 11.0741 139.145 10.4511 139.145 9.68984C139.145 9.3299 139.001 8.99773 138.728 8.70694L136.958 7.0182C138.066 6.31225 138.785 5.1356 138.785 3.80669C138.785 2.75463 138.397 1.85483 137.62 1.12122C136.857 0.373666 135.922 0 134.829 0H130.513C129.722 0 129.074 0.622849 129.074 1.38423V9.68984ZM134.872 2.76846C135.433 2.81007 135.908 3.253 135.908 3.80669C135.908 4.37422 135.419 4.84492 134.829 4.84492H131.952V2.76846H134.872V2.76846ZM145.807 9.68984C145.807 10.4511 146.454 11.0741 147.246 11.0741C148.037 11.0741 148.684 10.4511 148.684 9.68984V2.76846H151.561C152.353 2.76846 153 2.14561 153 1.38423C153 0.622849 152.353 0 151.561 0H142.93C142.138 0 141.491 0.622849 141.491 1.38423C141.491 2.14561 142.138 2.76846 142.93 2.76846H145.807V9.68984Z" fill="white"/>
            <path d="M87.8179 17.5741C87.8179 16.912 87.2466 16.3704 86.5484 16.3704C85.8501 16.3704 85.2788 16.912 85.2788 17.5741V24.7963C85.2788 25.4583 85.8501 26 86.5484 26H92.896C93.5943 26 94.1656 25.4583 94.1656 24.7963C94.1656 24.1342 93.5943 23.5925 92.896 23.5925H87.8179V17.5741V17.5741ZM96.1342 24.2065C96.0327 24.3871 95.9819 24.5917 95.9819 24.7963C95.9819 25.4583 96.5532 26 97.2514 26C97.7465 26 98.1147 25.7834 98.3813 25.338L99.0796 24.1945H104.208L104.894 25.338C105.161 25.7834 105.541 26 106.037 26C106.735 26 107.306 25.4583 107.306 24.7963C107.306 24.5676 107.255 24.375 107.154 24.2065L102.749 16.9601C102.495 16.563 102.126 16.3704 101.644 16.3704C101.162 16.3704 100.793 16.563 100.539 16.9601L96.1342 24.2065ZM102.736 21.787H100.539L101.644 19.9814L102.736 21.787ZM115.978 26C116.854 26 117.603 25.7111 118.225 25.1214C118.847 24.5315 119.152 23.8213 119.152 22.9907C119.152 22.3287 118.936 21.7269 118.517 21.1852C118.936 20.6435 119.152 20.0417 119.152 19.3796C119.152 18.5611 118.847 17.8629 118.238 17.2731C117.628 16.6833 116.892 16.3823 116.029 16.3704H110.9C110.201 16.3704 109.63 16.912 109.63 17.5741V24.7963C109.63 25.4583 110.201 26 110.9 26H115.978V26ZM115.978 18.7777C116.333 18.7777 116.613 19.0426 116.613 19.3796C116.613 19.7167 116.333 19.9814 115.978 19.9814H112.169V18.7777H115.978ZM116.029 22.3889C116.346 22.4009 116.613 22.6657 116.613 22.9907C116.613 23.3278 116.333 23.5925 115.978 23.5925H112.169V22.3889H116.029ZM121.73 24.7963C121.73 25.4583 122.301 26 122.999 26H129.347C130.045 26 130.617 25.4583 130.617 24.7963C130.617 24.1342 130.045 23.5925 129.347 23.5925H124.269V22.3889H128.077C128.776 22.3889 129.347 21.8472 129.347 21.1852C129.347 20.5232 128.776 19.9814 128.077 19.9814H124.269V18.7777H129.347C130.045 18.7777 130.617 18.2361 130.617 17.5741C130.617 16.912 130.045 16.3704 129.347 16.3704H122.999C122.301 16.3704 121.73 16.912 121.73 17.5741V24.7963ZM135.734 17.5741C135.734 16.912 135.162 16.3704 134.464 16.3704C133.766 16.3704 133.195 16.912 133.195 17.5741V24.7963C133.195 25.4583 133.766 26 134.464 26H140.812C141.51 26 142.081 25.4583 142.081 24.7963C142.081 24.1342 141.51 23.5925 140.812 23.5925H135.734V17.5741ZM148.239 23.5925C147.503 23.5925 146.741 23.4482 145.954 23.1713C145.307 22.9426 144.571 23.2676 144.329 23.8935C144.088 24.5074 144.431 25.2056 145.091 25.4343C146.018 25.8074 147.059 26 148.239 26H148.62C149.915 26 150.969 25.7352 151.781 25.1935C152.594 24.6518 153 23.9176 153 22.9907C153 22.0638 152.594 21.3296 151.781 20.7879C150.969 20.2463 149.915 19.9814 148.62 19.9814C147.389 19.9814 146.779 19.7768 146.779 19.3796C146.779 18.9824 147.389 18.7777 148.62 18.7777C149.407 18.7777 150.169 18.9222 150.905 19.199C151.553 19.4278 152.289 19.1028 152.53 18.4769C152.772 17.8629 152.429 17.1648 151.769 16.9361C150.842 16.563 149.801 16.3704 148.62 16.3704C147.325 16.3704 146.272 16.6351 145.459 17.1768C144.647 17.7184 144.24 18.4527 144.24 19.3796C144.24 20.3064 144.647 21.0407 145.459 21.5824C146.272 22.124 147.325 22.3889 148.62 22.3889C149.852 22.3889 150.461 22.5935 150.461 22.9907C150.461 23.388 149.852 23.5925 148.62 23.5925H148.239V23.5925Z" fill="white"/>
            <path fill-rule="evenodd" clip-rule="evenodd" d="M41.4722 5.41765C45.8451 5.41765 48.3289 9.87305 48.3289 13.0312C48.3289 16.1895 45.8451 20.6449 41.4722 20.6449C40.845 20.6449 40.2179 20.6449 39.5906 20.6449C37.5191 20.6449 35.8242 19.0152 35.8242 17.0234V9.03915C35.8242 7.04734 37.519 5.41765 39.5906 5.41765C40.2179 5.41765 40.845 5.41765 41.4722 5.41765V5.41765ZM74.3834 1.73164C75.7065 2.35381 76.2547 3.88995 75.6075 5.16222C74.9605 6.43459 73.3631 6.96146 72.04 6.3393C71.2715 5.97815 70.5129 5.70114 69.7729 5.49838C68.0101 5.01511 66.5242 4.87381 65.4625 5.2298C63.7759 5.79523 62.9236 8.28598 64.9672 9.25308C68.3289 10.8434 72.2069 10.4408 75.3006 12.9212C77.3081 14.5308 78.007 16.7937 77.6751 18.8661C77.1337 22.2474 75.1803 24.2106 72.015 25.2721C67.35 26.6361 63.0051 25.7964 59.7562 23.7151C58.4331 23.0929 57.885 21.557 58.532 20.2846C59.1792 19.0123 60.7765 18.4852 62.0996 19.1074C62.8681 19.4688 63.6268 19.7458 64.3668 19.9485C66.1296 20.4317 69.2492 20.9595 70.3109 20.6035C71.9975 20.0378 72.8498 17.547 70.8062 16.5801C67.8017 15.1585 63.0742 14.9976 60.4727 12.9119C58.4654 11.3025 57.7665 9.0397 58.0983 6.96705C58.6398 3.58577 60.593 1.62243 63.7583 0.560916C65.7885 -0.119743 68.3347 -0.246915 71.2377 0.548867C72.2122 0.815918 73.2615 1.20433 74.3834 1.73164V1.73164ZM13.9969 0.0624168C18.861 0.0624168 23.1453 2.3617 25.6539 5.85065C26.0067 6.31016 26.2154 6.87843 26.2154 7.49359C26.2154 9.02327 24.9259 10.2632 23.335 10.2632C22.2704 10.2632 21.3409 9.70787 20.8423 8.88208C19.4301 6.53033 16.8365 5.00821 13.9969 5.00821C9.58321 5.00821 6.0053 8.60013 6.0053 13.0312C6.0053 17.4623 9.58321 21.0542 13.9969 21.0542C17.5556 21.0542 19.1109 19.3943 21.0184 16.9164C21.5431 16.2347 22.3855 15.7928 23.335 15.7928C24.9259 15.7928 26.2154 17.0328 26.2154 18.5626C26.2154 19.1788 26.0211 19.6969 25.6627 20.1987C23.1556 23.6948 18.8669 26 13.9969 26C6.26661 26 0 20.1938 0 13.0312C0 5.86873 6.26661 0.0624168 13.9969 0.0624168V0.0624168ZM41.0406 0.322347C48.3399 0.322347 54.2574 6.01222 54.2574 13.0312C54.2574 20.0503 48.3399 25.7402 41.0406 25.7402H41.0306H41.0276H36.264C32.8064 25.7402 29.9772 23.0197 29.9772 19.6949V6.36756C29.9772 3.04268 32.8062 0.322347 36.264 0.322347H41.0276H41.0306H41.0406V0.322347Z" fill="white"/>
        </g>
        <defs>
        <clipPath id="clip0_1908_4210">
            <rect width="153" height="26" fill="white"/>
        </clipPath>
    </defs>
</svg>
