<svg width="54" height="47" viewBox="0 0 54 47" fill="none" xmlns="http://www.w3.org/2000/svg">
    <g clip-path="url(#clip0_2038_833)">
        <path fill-rule="evenodd" clip-rule="evenodd" d="M28.8023 3.81049C31.8388 3.81049 33.5654 6.94481 33.5654 9.16533C33.5654 11.3858 31.8388 14.5202 28.8023 14.5202C28.3669 14.5202 27.9315 14.5202 27.4961 14.5202C26.0566 14.5202 24.8799 13.3743 24.8799 11.9725V6.35815C24.8799 4.95639 26.0566 3.81049 27.4961 3.81049C27.9315 3.81049 28.3669 3.81049 28.8023 3.81049V3.81049ZM51.659 1.21714C52.5786 1.65576 52.9596 2.73586 52.5092 3.63138C52.0607 4.52508 50.9515 4.89608 50.0319 4.45928C49.4989 4.20525 48.9716 4.0097 48.4573 3.86714C47.2337 3.52721 46.2015 3.42852 45.4639 3.6789C44.2928 4.07549 43.6998 5.82815 45.1205 6.50801C47.4551 7.6265 50.1483 7.34322 52.2971 9.08857C53.6915 10.2198 54.1757 11.8117 53.9449 13.2701C53.5696 15.6478 52.2127 17.0276 50.015 17.7751C46.7739 18.7346 43.758 18.1443 41.5003 16.6804C40.5825 16.2418 40.2016 15.1616 40.6501 14.2661C41.1005 13.3724 42.2097 13.0014 43.1293 13.4382C43.6623 13.6923 44.1896 13.8878 44.702 14.0304C45.9275 14.3703 48.0932 14.7413 48.8308 14.4909C50.0019 14.0943 50.5949 12.3417 49.1742 11.6618C47.0892 10.6621 43.8049 10.5488 41.9976 9.08126C40.6051 7.94998 40.119 6.35815 40.3498 4.89973C40.7252 2.52204 42.0821 1.14038 44.2797 0.394722C45.691 -0.0841068 47.4589 -0.173659 49.4745 0.385584C50.152 0.573826 50.8802 0.846137 51.659 1.21714V1.21714ZM9.72149 0.0438245C13.0996 0.0438245 16.0742 1.66124 17.8159 4.1157C18.0617 4.43735 18.2062 4.83759 18.2062 5.27073C18.2062 6.34718 17.311 7.21894 16.2056 7.21894C15.4662 7.21894 14.8206 6.82784 14.4753 6.24667C13.4937 4.5927 11.6921 3.52173 9.72149 3.52173C6.65491 3.52173 4.17011 6.04929 4.17011 9.16533C4.17011 12.2814 6.65491 14.8089 9.72149 14.8089C12.1932 14.8089 13.2723 13.6411 14.5973 11.8976C14.9613 11.4187 15.5469 11.1081 16.2056 11.1081C17.311 11.1081 18.2062 11.9798 18.2062 13.0563C18.2062 13.4894 18.0711 13.8531 17.8234 14.2058C16.0818 16.6658 13.1034 18.2868 9.72149 18.2868C4.35215 18.2868 0 14.204 0 9.16533C0 4.12849 4.35215 0.0438245 9.72149 0.0438245V0.0438245ZM28.502 0.226584C33.5729 0.226584 37.6811 4.22901 37.6811 9.16533C37.6811 14.1016 33.5729 18.1041 28.502 18.1041H28.4964H28.4945H25.1858C22.7836 18.1041 20.8186 16.1906 20.8186 13.8513V4.47939C20.8186 2.14007 22.7836 0.226584 25.1858 0.226584H28.4945H28.4964H28.502V0.226584Z" fill="url(#paint0_linear_2038_833)"/>
        <path fill-rule="evenodd" clip-rule="evenodd" d="M28.8023 3.81049C31.8388 3.81049 33.5654 6.94481 33.5654 9.16533C33.5654 11.3858 31.8388 14.5202 28.8023 14.5202C28.3669 14.5202 27.9315 14.5202 27.4961 14.5202C26.0566 14.5202 24.8799 13.3743 24.8799 11.9725V6.35815C24.8799 4.95639 26.0566 3.81049 27.4961 3.81049C27.9315 3.81049 28.3669 3.81049 28.8023 3.81049V3.81049ZM51.659 1.21714C52.5786 1.65576 52.9596 2.73586 52.5092 3.63138C52.0607 4.52508 50.9515 4.89608 50.0319 4.45928C49.4989 4.20525 48.9716 4.0097 48.4573 3.86714C47.2337 3.52721 46.2015 3.42852 45.4639 3.6789C44.2928 4.07549 43.6998 5.82815 45.1205 6.50801C47.4551 7.6265 50.1483 7.34322 52.2971 9.08857C53.6915 10.2198 54.1757 11.8117 53.9449 13.2701C53.5696 15.6478 52.2127 17.0276 50.015 17.7751C46.7739 18.7346 43.758 18.1443 41.5003 16.6804C40.5825 16.2418 40.2016 15.1616 40.6501 14.2661C41.1005 13.3724 42.2097 13.0014 43.1293 13.4382C43.6623 13.6923 44.1896 13.8878 44.702 14.0304C45.9275 14.3703 48.0932 14.7413 48.8308 14.4909C50.0019 14.0943 50.5949 12.3417 49.1742 11.6618C47.0892 10.6621 43.8049 10.5488 41.9976 9.08126C40.6051 7.94998 40.119 6.35815 40.3498 4.89973C40.7252 2.52204 42.0821 1.14038 44.2797 0.394722C45.691 -0.0841068 47.4589 -0.173659 49.4745 0.385584C50.152 0.573826 50.8802 0.846137 51.659 1.21714V1.21714ZM9.72149 0.0438245C13.0996 0.0438245 16.0742 1.66124 17.8159 4.1157C18.0617 4.43735 18.2062 4.83759 18.2062 5.27073C18.2062 6.34718 17.311 7.21894 16.2056 7.21894C15.4662 7.21894 14.8206 6.82784 14.4753 6.24667C13.4937 4.5927 11.6921 3.52173 9.72149 3.52173C6.65491 3.52173 4.17011 6.04929 4.17011 9.16533C4.17011 12.2814 6.65491 14.8089 9.72149 14.8089C12.1932 14.8089 13.2723 13.6411 14.5973 11.8976C14.9613 11.4187 15.5469 11.1081 16.2056 11.1081C17.311 11.1081 18.2062 11.9798 18.2062 13.0563C18.2062 13.4894 18.0711 13.8531 17.8234 14.2058C16.0818 16.6658 13.1034 18.2868 9.72149 18.2868C4.35215 18.2868 0 14.204 0 9.16533C0 4.12849 4.35215 0.0438245 9.72149 0.0438245V0.0438245ZM28.502 0.226584C33.5729 0.226584 37.6811 4.22901 37.6811 9.16533C37.6811 14.1016 33.5729 18.1041 28.502 18.1041H28.4964H28.4945H25.1858C22.7836 18.1041 20.8186 16.1906 20.8186 13.8513V4.47939C20.8186 2.14007 22.7836 0.226584 25.1858 0.226584H28.4945H28.4964H28.502V0.226584Z" fill="white"/>
        <path d="M3.61359 32.75C2.94824 32.75 2.25987 32.615 1.54867 32.3563C0.963648 32.1425 0.298294 32.4463 0.0803297 33.0312C-0.137633 33.605 0.17212 34.2575 0.768608 34.4712C1.60608 34.82 2.5467 35 3.61359 35H3.95773C5.12778 35 6.07996 34.7525 6.81409 34.2462C7.5483 33.74 7.91537 33.0537 7.91537 32.1875C7.91537 31.3212 7.5483 30.635 6.81409 30.1287C6.07996 29.6225 5.12778 29.3749 3.95773 29.3749C2.84499 29.3749 2.29435 29.1837 2.29435 28.8124C2.29435 28.4412 2.84499 28.25 3.95773 28.25C4.66893 28.25 5.35721 28.3849 6.02256 28.6437C6.60759 28.8575 7.27294 28.5537 7.4909 27.9688C7.70886 27.3949 7.3992 26.7424 6.80262 26.5287C5.96525 26.1799 5.02453 26 3.95773 26C2.78758 26 1.8355 26.2475 1.10128 26.7537C0.367065 27.26 0 27.9462 0 28.8124C0 29.6787 0.367065 30.365 1.10128 30.8712C1.8355 31.3775 2.78758 31.625 3.95773 31.625C5.07047 31.625 5.62111 31.8163 5.62111 32.1875C5.62111 32.5588 5.07047 32.75 3.95773 32.75H3.61359V32.75ZM18.1948 33.875C18.1948 34.4937 18.7109 35 19.3419 35C19.9729 35 20.489 34.4937 20.489 33.875V27.125C20.489 26.5062 19.9729 26 19.3419 26C19.0207 26 18.7453 26.1125 18.5274 26.3263L15.3269 29.4649L12.1263 26.3263C11.8854 26.1125 11.61 26 11.3118 26C10.6808 26 10.1646 26.5062 10.1646 27.125V33.875C10.1646 34.4937 10.6808 35 11.3118 35C11.9427 35 12.4589 34.4937 12.4589 33.875V29.8475L14.5123 31.8612C14.7303 32.075 15.0056 32.1875 15.3269 32.1875C15.6366 32.1875 15.9004 32.075 16.1413 31.8612L18.1948 29.8475V33.875ZM22.7269 33.3238C22.6351 33.4925 22.5892 33.6837 22.5892 33.875C22.5892 34.4937 23.1054 35 23.7364 35C24.1838 35 24.5164 34.7975 24.7573 34.3812L25.3882 33.3125H30.0227L30.6422 34.3812C30.8831 34.7975 31.2273 35 31.6747 35C32.3056 35 32.8218 34.4937 32.8218 33.875C32.8218 33.6613 32.7759 33.4812 32.6841 33.3238L28.7035 26.5512C28.4741 26.1799 28.1414 26 27.7055 26C27.2695 26 26.9369 26.1799 26.7074 26.5512L22.7269 33.3238V33.3238ZM28.692 31.0625H26.7074L27.7055 29.3749L28.692 31.0625V31.0625ZM34.9219 33.875C34.9219 34.4937 35.4382 35 36.0691 35C36.7 35 37.2163 34.4937 37.2163 33.875V32.1875H38.4552L40.9904 34.6737C41.2084 34.8875 41.4837 35 41.8049 35C42.4358 35 42.9521 34.4937 42.9521 33.875C42.9521 33.5825 42.8374 33.3125 42.6194 33.0762L41.2084 31.7038C42.0917 31.13 42.6653 30.1737 42.6653 29.0937C42.6653 28.2387 42.3555 27.5074 41.7361 26.9112C41.128 26.3037 40.3824 26 39.5106 26H36.0691C35.4382 26 34.9219 26.5062 34.9219 27.125V33.875ZM39.545 28.25C39.9924 28.2838 40.3709 28.6437 40.3709 29.0937C40.3709 29.555 39.9809 29.9375 39.5106 29.9375H37.2163V28.25H39.545V28.25ZM48.2642 33.875C48.2642 34.4937 48.7804 35 49.4114 35C50.0423 35 50.5585 34.4937 50.5585 33.875V28.25H52.8528C53.4837 28.25 54 27.7438 54 27.125C54 26.5062 53.4837 26 52.8528 26H45.9699C45.339 26 44.8227 26.5062 44.8227 27.125C44.8227 27.7438 45.339 28.25 45.9699 28.25H48.2642V33.875Z" fill="white"/>
        <path d="M2.02464 40C2.02464 39.45 1.56911 39 1.01236 39C0.455529 39 0 39.45 0 40V46C0 46.55 0.455529 47 1.01236 47H6.07383C6.63066 47 7.0862 46.55 7.0862 46C7.0862 45.45 6.63066 45 6.07383 45H2.02464V40V40ZM8.65595 45.51C8.57497 45.66 8.53452 45.83 8.53452 46C8.53452 46.55 8.99005 47 9.54679 47C9.94156 47 10.2351 46.82 10.4477 46.45L11.0045 45.5H15.0942L15.6409 46.45C15.8534 46.82 16.1571 47 16.5519 47C17.1087 47 17.5642 46.55 17.5642 46C17.5642 45.81 17.5238 45.65 17.4428 45.51L13.9301 39.49C13.7276 39.16 13.434 39 13.0493 39C12.6647 39 12.3711 39.16 12.1686 39.49L8.65595 45.51ZM13.9199 43.5H12.1686L13.0493 41.9999L13.9199 43.5ZM24.479 47C25.1775 47 25.7748 46.76 26.2708 46.27C26.7668 45.78 27.0098 45.19 27.0098 44.5C27.0098 43.95 26.8377 43.45 26.5036 43C26.8377 42.55 27.0098 42.05 27.0098 41.4999C27.0098 40.82 26.7668 40.24 26.2809 39.7499C25.795 39.26 25.2079 39.0099 24.5195 39H20.4298C19.873 39 19.4174 39.45 19.4174 40V46C19.4174 46.55 19.873 47 20.4298 47H24.479V47ZM24.479 41C24.7624 41 24.9851 41.22 24.9851 41.4999C24.9851 41.78 24.7624 41.9999 24.479 41.9999H21.4421V41H24.479ZM24.5195 44C24.7726 44.01 24.9851 44.2299 24.9851 44.5C24.9851 44.78 24.7624 45 24.479 45H21.4421V44H24.5195ZM29.0655 46C29.0655 46.55 29.521 47 30.0778 47H35.1393C35.6961 47 36.1517 46.55 36.1517 46C36.1517 45.45 35.6961 45 35.1393 45H31.0901V44H34.127C34.6838 44 35.1393 43.55 35.1393 43C35.1393 42.45 34.6838 41.9999 34.127 41.9999H31.0901V41H35.1393C35.6961 41 36.1517 40.55 36.1517 40C36.1517 39.45 35.6961 39 35.1393 39H30.0778C29.521 39 29.0655 39.45 29.0655 40V46ZM40.232 40C40.232 39.45 39.7764 39 39.2197 39C38.6629 39 38.2073 39.45 38.2073 40V46C38.2073 46.55 38.6629 47 39.2197 47H44.2812C44.838 47 45.2935 46.55 45.2935 46C45.2935 45.45 44.838 45 44.2812 45H40.232V40ZM50.2039 45C49.6167 45 49.0094 44.88 48.3817 44.65C47.8655 44.46 47.2784 44.73 47.086 45.25C46.8937 45.76 47.167 46.34 47.6934 46.53C48.4324 46.84 49.2625 47 50.2039 47H50.5076C51.5401 47 52.3804 46.78 53.0282 46.33C53.6761 45.88 54 45.27 54 44.5C54 43.73 53.6761 43.12 53.0282 42.67C52.3804 42.22 51.5401 41.9999 50.5076 41.9999C49.5257 41.9999 49.0397 41.83 49.0397 41.4999C49.0397 41.17 49.5257 41 50.5076 41C51.1352 41 51.7426 41.12 52.3297 41.35C52.846 41.54 53.4331 41.27 53.6255 40.75C53.8178 40.24 53.5445 39.66 53.0181 39.47C52.2791 39.16 51.449 39 50.5076 39C49.4751 39 48.6348 39.2199 47.9869 39.6699C47.339 40.1199 47.0151 40.7299 47.0151 41.4999C47.0151 42.27 47.339 42.88 47.9869 43.33C48.6348 43.78 49.4751 44 50.5076 44C51.4895 44 51.9755 44.17 51.9755 44.5C51.9755 44.83 51.4895 45 50.5076 45H50.2039V45Z" fill="white"/>
    </g>
    <defs>
        <linearGradient id="paint0_linear_2038_833" x1="0" y1="0" x2="53.6816" y2="19.1781" gradientUnits="userSpaceOnUse">
            <stop stop-color="#013773"/>
            <stop offset="1" stop-color="#6D9AF4"/>
        </linearGradient>
        <clipPath id="clip0_2038_833">
            <rect width="54" height="47" fill="white"/>
        </clipPath>
    </defs>
</svg>
