<svg width="34" height="32" viewBox="0 0 34 32" fill="none" xmlns="http://www.w3.org/2000/svg">
    <path d="M13.5665 0.931213C13.0142 0.931213 12.5665 1.37893 12.5665 1.93121C12.5665 2.4835 13.0142 2.93121 13.5665 2.93121V0.931213ZM20.3999 2.93121C20.9522 2.93121 21.3999 2.4835 21.3999 1.93121C21.3999 1.37893 20.9522 0.931213 20.3999 0.931213V2.93121ZM13.9634 26.0491C13.9634 25.4968 13.5157 25.0491 12.9634 25.0491C12.4111 25.0491 11.9634 25.4968 11.9634 26.0491H13.9634ZM22.0027 26.0491C22.0027 25.4968 21.555 25.0491 21.0027 25.0491C20.4504 25.0491 20.0027 25.4968 20.0027 26.0491H22.0027ZM16.9832 5.60113L17.0119 4.60154C16.9931 4.601 16.9743 4.60099 16.9555 4.60151L16.9832 5.60113ZM27.0202 14.5087L28.0163 14.4205C28.0146 14.4007 28.0122 14.381 28.0093 14.3614L27.0202 14.5087ZM28.2261 20.5381L27.2727 20.8398C27.3065 20.9465 27.3579 21.0468 27.4248 21.1364L28.2261 20.5381ZM28.6944 24.3809L29.558 24.885C29.5798 24.8477 29.5992 24.809 29.6159 24.7692L28.6944 24.3809ZM25.8405 26.043V27.0431L25.8528 27.043L25.8405 26.043ZM8.12186 26.043L8.10955 27.043H8.12186V26.043ZM5.26791 24.3809L4.34672 24.77C4.36342 24.8095 4.38264 24.848 4.40428 24.885L5.26791 24.3809ZM5.72816 20.5442L6.5312 21.1401C6.59729 21.051 6.6481 20.9516 6.68156 20.8459L5.72816 20.5442ZM6.93406 14.5147L5.94488 14.368C5.942 14.3874 5.93969 14.4069 5.93795 14.4265L6.93406 14.5147ZM13.5665 2.93121H20.3999V0.931213H13.5665V2.93121ZM11.9634 26.0491C11.9634 28.8214 14.2108 31.0687 16.9831 31.0687V29.0687C15.3154 29.0687 13.9634 27.7168 13.9634 26.0491H11.9634ZM16.9831 31.0687C19.7553 31.0687 22.0027 28.8214 22.0027 26.0491H20.0027C20.0027 27.7168 18.6508 29.0687 16.9831 29.0687V31.0687ZM16.9545 6.60072C21.532 6.73219 25.3567 10.1265 26.0311 14.6559L28.0093 14.3614C27.1921 8.87339 22.5581 4.76084 17.0119 4.60154L16.9545 6.60072ZM26.0241 14.5969C26.2118 16.7171 26.6305 18.8105 27.2727 20.8398L29.1795 20.2364C28.5812 18.3459 28.1912 16.3957 28.0163 14.4205L26.0241 14.5969ZM27.4248 21.1364C28.0392 21.9593 28.1717 23.0462 27.7729 23.9926L29.6159 24.7692C30.2902 23.169 30.0663 21.3313 29.0274 19.9399L27.4248 21.1364ZM27.8308 23.8768C27.4143 24.5902 26.6542 25.0329 25.8281 25.0431L25.8528 27.043C27.3811 27.0241 28.7875 26.205 29.558 24.885L27.8308 23.8768ZM25.8405 25.043H8.12186V27.043H25.8405V25.043ZM8.13418 25.0431C7.30815 25.0329 6.54799 24.5902 6.13155 23.8768L4.40428 24.885C5.17479 26.205 6.58123 27.0241 8.10955 27.043L8.13418 25.0431ZM6.18911 23.9918C5.79033 23.0477 5.92043 21.9631 6.5312 21.1401L4.92513 19.9482C3.89243 21.3398 3.67245 23.1737 4.34672 24.77L6.18911 23.9918ZM6.68156 20.8459C7.32377 18.8165 7.74245 16.7231 7.93016 14.6029L5.93795 14.4265C5.76308 16.4017 5.37304 18.3519 4.77476 20.2424L6.68156 20.8459ZM7.92323 14.6614C8.59604 10.1258 12.4273 6.72747 17.0108 6.60075L16.9555 4.60151C11.4021 4.75505 6.76006 8.87257 5.94488 14.368L7.92323 14.6614Z" fill="white"/>
</svg>
