<svg width="33" height="35" viewBox="0 0 33 35" fill="none" xmlns="http://www.w3.org/2000/svg">
    <path fill-rule="evenodd" clip-rule="evenodd" d="M10.0714 10C5.33756 10 1.5 13.5817 1.5 18L1.5 26C1.5 30.4183 5.33756 34 10.0714 34L22.9286 34C27.6624 34 31.5 30.4183 31.5 26L31.5 18C31.5 13.5817 27.6624 10 22.9286 10" fill="#4B84F1"/>
    <path d="M10.0714 10C5.33756 10 1.5 13.5817 1.5 18L1.5 26C1.5 30.4183 5.33756 34 10.0714 34L22.9286 34C27.6624 34 31.5 30.4183 31.5 26L31.5 18C31.5 13.5817 27.6624 10 22.9286 10" stroke="#4B84F1" stroke-width="2" stroke-linecap="round" stroke-linejoin="round"/>
    <path d="M17.5682 22.6753C17.9513 22.2774 17.9394 21.6444 17.5415 21.2613C17.1437 20.8782 16.5106 20.8902 16.1276 21.288L17.5682 22.6753ZM12.7027 24.8448C12.3196 25.2426 12.3315 25.8757 12.7294 26.2587C13.1272 26.6418 13.7602 26.6299 14.1433 26.232L12.7027 24.8448ZM12.7027 26.232C13.0857 26.6299 13.7188 26.6418 14.1166 26.2587C14.5145 25.8757 14.5264 25.2426 14.1433 24.8448L12.7027 26.232ZM10.7184 21.288C10.3353 20.8902 9.70229 20.8782 9.30446 21.2613C8.90664 21.6444 8.89468 22.2774 9.27776 22.6753L10.7184 21.288ZM12.4229 25.5384C12.4229 26.0907 12.8706 26.5384 13.4229 26.5384C13.9752 26.5384 14.4229 26.0907 14.4229 25.5384L12.4229 25.5384ZM14.4229 11.1538C14.4229 10.6015 13.9752 10.1538 13.4229 10.1538C12.8706 10.1538 12.4229 10.6015 12.4229 11.1538L14.4229 11.1538ZM16.1276 21.288L12.7027 24.8448L14.1433 26.232L17.5682 22.6753L16.1276 21.288ZM14.1433 24.8448L10.7184 21.288L9.27776 22.6753L12.7027 26.232L14.1433 24.8448ZM14.4229 25.5384L14.4229 11.1538L12.4229 11.1538L12.4229 25.5384L14.4229 25.5384Z" fill="white"/>
    <path d="M15.2008 3.86317C14.8177 4.261 14.8297 4.89406 15.2275 5.27714C15.6253 5.66022 16.2584 5.64826 16.6415 5.25043L15.2008 3.86317ZM20.0664 1.69366C20.4495 1.29583 20.4375 0.662783 20.0397 0.279702C19.6418 -0.103378 19.0088 -0.0914221 18.6257 0.306407L20.0664 1.69366ZM20.0664 0.306407C19.6833 -0.0914221 19.0502 -0.103378 18.6524 0.279702C18.2546 0.662783 18.2426 1.29583 18.6257 1.69366L20.0664 0.306407ZM22.0506 5.25043C22.4337 5.64826 23.0667 5.66022 23.4646 5.27714C23.8624 4.89406 23.8744 4.261 23.4913 3.86317L22.0506 5.25043ZM20.3461 1.00003C20.3461 0.447743 19.8984 2.86102e-05 19.3461 2.86102e-05C18.7939 2.86102e-05 18.3461 0.447743 18.3461 1.00003H20.3461ZM18.3461 15.3846C18.3461 15.9369 18.7939 16.3846 19.3461 16.3846C19.8984 16.3846 20.3461 15.9369 20.3461 15.3846H18.3461ZM16.6415 5.25043L20.0664 1.69366L18.6257 0.306407L15.2008 3.86317L16.6415 5.25043ZM18.6257 1.69366L22.0506 5.25043L23.4913 3.86317L20.0664 0.306407L18.6257 1.69366ZM18.3461 1.00003V15.3846H20.3461V1.00003H18.3461Z" fill="#4B84F1"/>
</svg>
