<svg width="60" height="60" viewBox="0 0 60 60" fill="none" xmlns="http://www.w3.org/2000/svg">
    <rect width="60" height="60" rx="10" fill="#4B84F1"/>
    <path d="M32 20.2695V24.4001C32 24.9601 32 25.2401 32.109 25.4541C32.2049 25.6422 32.3578 25.7952 32.546 25.8911C32.7599 26.0001 33.0399 26.0001 33.6 26.0001H37.7305M32 35H26M34 31H26M38 27.9882V35.2C38 36.8802 38 37.7202 37.673 38.362C37.3854 38.9265 36.9265 39.3854 36.362 39.673C35.7202 40 34.8802 40 33.2 40H26.8C25.1198 40 24.2798 40 23.638 39.673C23.0735 39.3854 22.6146 38.9265 22.327 38.362C22 37.7202 22 36.8802 22 35.2V24.8C22 23.1198 22 22.2798 22.327 21.638C22.6146 21.0735 23.0735 20.6146 23.638 20.327C24.2798 20 25.1198 20 26.8 20H30.0118C30.7455 20 31.1124 20 31.4577 20.0829C31.7638 20.1564 32.0564 20.2776 32.3249 20.4421C32.6276 20.6276 32.887 20.887 33.4059 21.4059L36.5941 24.5941C37.113 25.113 37.3724 25.3724 37.5579 25.6751C37.7224 25.9436 37.8436 26.2362 37.9171 26.5423C38 26.8876 38 27.2545 38 27.9882Z" stroke="white" stroke-width="2" stroke-linecap="round" stroke-linejoin="round"/>
</svg>
