<svg width="34" height="29" viewBox="0 0 34 29" fill="none" xmlns="http://www.w3.org/2000/svg">
    <path fill-rule="evenodd" clip-rule="evenodd" d="M22 15C22 17.7614 19.7614 20 17 20C14.2386 20 12 17.7614 12 15C12 12.2386 14.2386 10 17 10C19.7614 10 22 12.2386 22 15Z" stroke="white" stroke-width="2" stroke-linecap="round" stroke-linejoin="round"/>
    <path fill-rule="evenodd" clip-rule="evenodd" d="M7.53638 26.2637L2.50606 16.0678C1.83131 15.0599 1.83131 13.7644 2.50606 12.7566L7.50438 2.72076C8.26949 1.6257 9.55738 0.978333 10.9266 1.00055H17.005H23.0834C24.4526 0.978333 25.7405 1.6257 26.5056 2.72076L31.4939 12.7489C32.1687 13.7567 32.1687 15.0522 31.4939 16.0601L26.4736 26.2637C25.709 27.3701 24.4121 28.0244 23.0334 27.9993H10.9746C9.5966 28.0237 8.30063 27.3695 7.53638 26.2637Z" stroke="white" stroke-width="2" stroke-linecap="round" stroke-linejoin="round"/>
</svg>
