<?xml version="1.0" encoding="UTF-8"?>
<!DOCTYPE svg PUBLIC "-//W3C//DTD SVG 1.1//EN" "http://www.w3.org/Graphics/SVG/1.1/DTD/svg11.dtd">
<!-- Creator: CorelDRAW 2018 (64-Bit) -->
<svg xmlns="http://www.w3.org/2000/svg" xml:space="preserve" width="6.6038mm" height="6.6038mm" version="1.1" style="shape-rendering:geometricPrecision; text-rendering:geometricPrecision; image-rendering:optimizeQuality; fill-rule:evenodd; clip-rule:evenodd"
viewBox="0 0 660.38 660.38"
 xmlns:xlink="http://www.w3.org/1999/xlink">
 <defs>
  <style type="text/css">
   <![CDATA[
    .fil1 {fill:#00245A}
    .fil0 {fill:#ECF0F9}
   ]]>
  </style>
 </defs>
 <g id="Слой_x0020_1">
  <metadata id="CorelCorpID_0Corel-Layer"/>
  <g id="_2247350124896">
   <g id="_3042682395616">
    <circle class="fil0" cx="330.2" cy="330.19" r="330.2"/>
    <g id="_2126688300752">
     <path class="fil1" d="M267.74 260.58l-109.08 9.8c-11.61,0.59 -21.09,9.3 -21.09,18.81 0,14.42 7.45,18.16 19.4,28.77l29.33 25.58c2.28,2.28 3.78,3.06 6.02,5.28 2.28,2.27 3.78,3.05 6.02,5.27 2.28,2.28 3.78,3.03 6.03,5.24 2.27,2.31 3.8,3.06 6.02,5.27l6.02 5.28c3.84,3.62 7.93,7.49 12.2,10.36l-22.71 99.15c-2.63,11.11 -5.75,20.31 3.3,29.36 13.95,13.89 28.55,1.25 42.31,-7.05l52.33 -31.23c4.36,-2.59 8.51,-5.12 13.13,-7.89 4.59,-2.75 8.77,-5.5 13.23,-7.87l26.02 15.39c8.93,5.24 17.13,10.29 25.87,15.5l39.12 23.34c8.61,5.15 19.04,10.42 29.61,0.19 11.73,-11.39 4.28,-25.4 0.6,-43.18l-19.63 -85.71 73.92 -64.53c8.2,-7.7 17.12,-11.17 17.12,-25.02 0,-11.73 -9.07,-19.16 -19.68,-20.22 -21.31,-2.09 -51.67,-3.9 -73.08,-6.64l-18.62 -1.72c-6.15,-0.34 -13.01,-1.53 -18.79,-1.53 -0.21,-2.65 -10.95,-26.68 -12.79,-30.86 -6.24,-14.22 -29.08,-70.98 -33.73,-76.88 -7.73,-9.76 -23.55,-9.92 -31.54,-0.4 -4.52,5.4 -34.63,78.22 -40.41,92.04 -1.43,3.46 -6.2,13.07 -6.45,16.1zm-100.47 33.51c1.18,2.22 7.27,6.65 9.39,8.67 3.37,3.22 6.58,6.18 9.95,8.87 1.91,1.49 2.94,2.74 4.75,4.27l35.32 30.92c5.3,5.18 13.41,11.17 19.93,17.66 8.96,8.89 6.71,16.16 3.68,29.17l-20.9 92.76 73.63 -43.83c28.68,-17.35 26.15,-16.82 53.86,-0.25 8.02,4.83 16.41,9.79 24.49,14.63l49.64 29.45c-1.59,-11.39 -16.88,-74.19 -20.65,-91.51 -4.97,-22.87 -4.87,-23.71 12.41,-38.69l67.4 -59c0.87,-0.84 0.47,-0.34 1.21,-1.12 1.41,-1.53 0.44,-0.07 1.53,-2.03l-95.75 -8.71c-11.64,-0.99 -19.69,-2.68 -24.37,-10.92 -6.58,-11.54 -38.47,-93.13 -42.59,-98.4 -3.84,4.93 -35.57,85.27 -42.34,97.9 -4.46,8.27 -11.86,10.24 -23.15,11.3l-97.44 8.86z"/>
    </g>
   </g>
  </g>
 </g>
</svg>
